# xmcd
#
# Track frame offsets:
#	150
#	14544
#	32415
#	49051
#	64243
#	80589
#	98648
#	113855
#	129387
#	145338
#	158232
#	176584
#	196383
#	213577
#	228762
#	244091
#	259925
#
# Disc length: 3650 seconds
#
# Revision: 1
# Processed by: cddbd v1.5.2PL0 Copyright (c) Steve Scherf et al.
# Submitted via: audiograbber 1.83.01
#
DISCID=ea0e4011
DTITLE=Various Artist - Beaut Ute Anthems 2014 [Disc 2]
DYEAR=2014
DGENRE=Country
TTITLE0=Adam Brand - Get On Down The Road
TTITLE1=Carrie Underwood - Blown Away
TTITLE2=The Wolfe Brothers - One Way State Of Mind
TTITLE3=Morgan Evans - While We're Young
TTITLE4=Jayne Denham - Addicted To The Diesel
TTITLE5=Shannon Noll - Drive
TTITLE6=Emerson Drive - Show Us Whatcha Got
TTITLE7=Amber Lawrence - Everybody's A Mess
TTITLE8=Adam Eckersley Band - Long Enough To Disappear
TTITLE9=Eli Young Band - Life At Best
TTITLE10=Alan Jackson - Drive (For Daddy Gene)
TTITLE11=Tom Cochrane - Life Is A Highway
TTITLE12=Dean Brody - Four Wheel Drive
TTITLE13=Wolverines - Faster
TTITLE14=Tania Kernaghan - Goin' Bush
TTITLE15=Corey Colum - The Ballad Of Brigalow
TTITLE16=Willie Nelson, Johnny Cash, Waylon Jennings, Kris Kristofferson - High
TTITLE16=waymen
EXTD=
EXTT0=
EXTT1=
EXTT2=
EXTT3=
EXTT4=
EXTT5=
EXTT6=
EXTT7=
EXTT8=
EXTT9=
EXTT10=
EXTT11=
EXTT12=
EXTT13=
EXTT14=
EXTT15=
EXTT16=
PLAYORDER=
